
Release info:


Format                                   : Flash Video
File size                                : 180 MiB
Duration                                 : 44mn 33s
Overall bit rate                         : 565 Kbps

Video
Format                                   : AVC
Format/Info                              : Advanced Video Codec
Format profile                           : Main@L3.0
Format settings, CABAC                   : Yes
Format settings, ReFrames                : 3 frames
Codec ID                                 : 7
Duration                                 : 44mn 33s
Bit rate                                 : 428 Kbps
Width                                    : 624 pixels
Height                                   : 352 pixels
Display aspect ratio                     : 16:9
Frame rate mode                          : Constant
Frame rate                               : 23.976 fps
Color space                              : YUV
Chroma subsampling                       : 4:2:0
Bit depth                                : 8 bits
Scan type                                : Progressive
Bits/(Pixel*Frame)                       : 0.081
Stream size                              : 136 MiB (76%)

Audio
Format                                   : AAC
Format/Info                              : Advanced Audio Codec
Format profile                           : LC
Codec ID                                 : 10
Duration                                 : 44mn 33s
Bit rate                                 : 129 Kbps
Channel(s)                               : 2 channels
Channel positions                        : Front: L R
Sampling rate                            : 44.1 KHz
Compression mode                         : Lossy
Stream size                              : 41.0 MiB (23%)



Source:
credit to original movie ripper (Thanks)

IMDB Info:

After reviewing theories about how black holes form and how they were detected this program looks at their counterintuitive behavior that makes them seem so bizarre.

Stars: Morgan Freeman, Janna Levin and Leonard Susskind 

Ratings: 8.6/10

Genres: Documentary | Family | Mystery
 
http://www.imdb.com/title/tt1669757/

Screen Shot:
 
http://www.shotpix.com/images/53262725718276040670.png 
http://www.shotpix.com/images/04508726055326211860.png 
http://www.shotpix.com/images/75045399732288357667.png 
http://www.shotpix.com/images/19861719232388427478.png 
http://www.shotpix.com/images/85625759220993074381.png